<svg fill="currentColor" version="1.0" xmlns="http://www.w3.org/2000/svg"
   viewBox="0 0 900.000000 780.000000"
 preserveAspectRatio="xMidYMid meet">

<g transform="translate(0.000000,780.000000) scale(0.100000,-0.100000)"
 stroke="none">
<path d="M4675 5384 c-472 -37 -784 -112 -1065 -255 -149 -76 -230 -159 -230
-235 0 -34 43 -110 71 -124 19 -11 16 -15 -42 -78 -223 -238 -260 -477 -103
-669 24 -29 31 -44 22 -47 -7 -2 -51 -11 -98 -21 -179 -35 -358 -107 -476
-190 -249 -177 -268 -484 -48 -752 l27 -33 -49 0 c-84 0 -294 -39 -400 -75
-210 -70 -349 -158 -514 -324 -155 -156 -254 -309 -334 -519 l-16 -43 32 17
c18 9 67 43 108 74 204 155 450 292 670 373 297 109 644 159 960 138 198 -14
323 -34 575 -94 105 -24 212 -48 239 -52 58 -8 338 -84 574 -156 442 -133 903
-234 1307 -286 165 -21 608 -26 745 -9 510 65 815 269 954 638 65 172 79 459
32 648 l-14 55 -1 -75 c-9 -475 -337 -777 -926 -855 -111 -15 -524 -22 -595
-11 -14 3 -60 7 -103 11 -43 4 -77 8 -75 10 2 2 84 20 183 40 299 61 566 161
732 273 206 140 309 313 320 537 15 303 -137 520 -451 645 -168 67 -404 110
-606 110 -60 0 -111 3 -114 8 -6 10 27 191 49 267 47 163 102 236 206 273 144
52 236 123 260 200 33 110 -80 240 -306 351 -229 113 -484 177 -860 216 -146
15 -539 27 -640 19z m595 -58 c14 -2 66 -10 115 -16 195 -24 417 -82 608 -156
103 -41 334 -154 378 -185 77 -55 80 -158 7 -226 -28 -27 -121 -69 -168 -76
-113 -18 -108 -15 -147 -85 -122 -218 -188 -511 -192 -850 -2 -130 -6 -173
-21 -217 -37 -107 -82 -178 -170 -265 -72 -72 -102 -94 -190 -138 -187 -94
-380 -124 -662 -104 -361 26 -576 93 -705 219 -102 99 -126 185 -188 653 -63
473 -100 693 -126 741 -6 11 -31 29 -55 40 -170 72 -299 188 -287 259 10 66
73 113 241 179 305 119 647 198 997 230 91 8 519 6 565 -3z m-1678 -642 c83
-42 83 -41 42 -87 -120 -132 -100 -305 60 -521 59 -79 138 -156 160 -156 15 0
19 -15 30 -105 20 -157 26 -219 21 -223 -2 -2 -66 44 -142 104 -76 59 -175
137 -220 172 -125 96 -198 174 -235 250 -31 62 -33 74 -33 168 0 94 2 104 35
170 25 51 59 94 127 162 51 50 95 92 97 92 2 0 28 -12 58 -26z m132 -131 c45
-90 100 -303 139 -535 5 -35 -9 -36 -51 -5 -64 48 -145 174 -189 294 -25 69
-30 153 -12 200 10 29 67 93 81 93 4 0 18 -21 32 -47z m2461 -568 c151 -19
161 -21 280 -51 416 -106 617 -311 591 -603 -40 -436 -466 -715 -1264 -825
-62 -9 -135 -16 -161 -16 -93 0 -425 70 -831 176 -598 156 -1139 259 -1535
293 -66 6 -145 13 -175 15 -30 3 -93 5 -141 6 l-85 0 -73 73 c-84 84 -124 157
-147 271 -13 63 -14 89 -5 133 41 206 236 341 638 443 l122 32 38 -30 c21 -16
91 -68 156 -117 65 -48 163 -125 218 -172 83 -72 101 -92 109 -127 20 -74 43
-140 62 -174 161 -287 527 -425 998 -378 181 19 288 39 410 78 229 73 399 195
475 340 57 109 68 153 70 298 4 159 15 331 22 344 5 7 140 2 228 -9z"/>
<path d="M4680 4884 c-14 -2 -65 -9 -115 -15 -122 -14 -298 -54 -425 -95 -111
-36 -138 -48 -124 -57 29 -17 396 -77 604 -99 183 -19 611 -16 795 6 157 18
412 65 479 89 l38 13 -105 32 c-135 42 -297 78 -461 104 -102 16 -191 21 -396
23 -146 2 -276 2 -290 -1z"/>
<path d="M7591 3394 c0 -11 3 -14 6 -6 3 7 2 16 -1 19 -3 4 -6 -2 -5 -13z"/>
</g>
</svg>
